<?xml version="1.0"?>
<svg xmlns="http://www.w3.org/2000/svg" viewBox="0 0 512 512" width="512" height="512"><g id="User_Female" data-name="User Female"><g id="Outline"><path d="M432.163,374.287a72.252,72.252,0,0,0-40.544-25.234l-81.354-18.078a7.953,7.953,0,0,1-6.265-7.81V299.113A96.057,96.057,0,0,0,352,216V168a8,8,0,0,0-16,0v48a80,80,0,0,1-160,0V168a8,8,0,0,0-16,0v48a96.057,96.057,0,0,0,48,83.113v24.052a7.953,7.953,0,0,1-6.265,7.81l-81.354,18.078A72,72,0,0,0,64,419.339V504a8,8,0,0,0,16,0v-8h48v8a8,8,0,0,0,16,0V456a8,8,0,0,0-16,0v24H80V419.339a55.667,55.667,0,0,1,43.852-54.667L192,349.528V360c0,15.537,10.534,31.04,31.31,46.078A184.6,184.6,0,0,0,252.73,423.3l3.27,1.463,3.27-1.463a184.6,184.6,0,0,0,29.42-17.224C309.466,391.04,320,375.537,320,360V349.528l68.148,15.144A55.667,55.667,0,0,1,432,419.339V480H384V456a8,8,0,0,0-16,0v48a8,8,0,0,0,16,0v-8h48v8a8,8,0,0,0,16,0V419.339A72.249,72.249,0,0,0,432.163,374.287ZM304,360c0,19.6-32.058,39.352-47.995,47.158-15.352-7.567-48-27.67-48-47.158V345.776a23.824,23.824,0,0,0,16-22.611V306.509a95.989,95.989,0,0,0,64,0v16.656a23.824,23.824,0,0,0,16,22.611Z"/><path d="M168.38,43.78a7.938,7.938,0,0,0,4.61-1.46l.13-.09h-.011a8.006,8.006,0,1,0-4.729,1.55Z"/><path d="M136,320h40.479a8,8,0,1,0,0-16H136a24.084,24.084,0,0,1-24-24V160a143.581,143.581,0,0,1,38.24-97.73,8,8,0,0,0-11.75-10.86A159.47,159.47,0,0,0,96,160V280a40.015,40.015,0,0,0,40,40Z"/><path d="M196.25,28.2a7.92,7.92,0,0,0,3.14-.65A144.047,144.047,0,0,1,400,160V280a24.084,24.084,0,0,1-24,24H335.52a8,8,0,0,0,0,16H376a40.015,40.015,0,0,0,40-40V160a159.447,159.447,0,0,0-27.33-89.47,160.382,160.382,0,0,0-70.38-57.95A158.894,158.894,0,0,0,256.02,0h-.041A161.236,161.236,0,0,0,223.42,3.32a159.27,159.27,0,0,0-30.32,9.52,8,8,0,0,0,3.15,15.36Z"/><path d="M144,104v24a16.019,16.019,0,0,0,16,16H352a16.019,16.019,0,0,0,16-16V104a8,8,0,0,0-16,0v24H160V104a8,8,0,0,0-16,0Z"/><path d="M263.39,444.94a8.032,8.032,0,0,0-.741-1.38,8.369,8.369,0,0,0-.989-1.22,7.728,7.728,0,0,0-1.221-.99,7.8,7.8,0,0,0-2.879-1.19,7.809,7.809,0,0,0-3.121,0,7.893,7.893,0,0,0-1.5.45,7.986,7.986,0,0,0-1.379.74,7.766,7.766,0,0,0-1.22.99,8.31,8.31,0,0,0-.99,1.22,8.032,8.032,0,0,0-.741,1.38,7.919,7.919,0,0,0-.449,1.5,7.685,7.685,0,0,0,0,3.12,7.919,7.919,0,0,0,.449,1.5,8.032,8.032,0,0,0,.741,1.38,8.31,8.31,0,0,0,.99,1.22,7.766,7.766,0,0,0,1.22.99,7.986,7.986,0,0,0,1.379.74,7.893,7.893,0,0,0,1.5.45,7.69,7.69,0,0,0,3.121,0,7.8,7.8,0,0,0,2.879-1.19,7.728,7.728,0,0,0,1.221-.99,8.369,8.369,0,0,0,.989-1.22,8.032,8.032,0,0,0,.741-1.38,7.85,7.85,0,0,0,.45-1.5,7.685,7.685,0,0,0,0-3.12A7.85,7.85,0,0,0,263.39,444.94Z"/><path d="M260.439,473.35a7.8,7.8,0,0,0-2.879-1.19,7.809,7.809,0,0,0-3.121,0,7.893,7.893,0,0,0-1.5.45,7.986,7.986,0,0,0-1.379.74,7.589,7.589,0,0,0-2.21,2.21,8.032,8.032,0,0,0-.741,1.38,7.919,7.919,0,0,0-.449,1.5,7.685,7.685,0,0,0,0,3.12,7.919,7.919,0,0,0,.449,1.5,8.032,8.032,0,0,0,.741,1.38,8.31,8.31,0,0,0,.99,1.22,7.766,7.766,0,0,0,1.22.99,7.986,7.986,0,0,0,1.379.74,7.893,7.893,0,0,0,1.5.45,7.69,7.69,0,0,0,3.121,0,7.8,7.8,0,0,0,2.879-1.19,7.728,7.728,0,0,0,1.221-.99,8.369,8.369,0,0,0,.989-1.22,8.032,8.032,0,0,0,.741-1.38,7.85,7.85,0,0,0,.45-1.5A7.443,7.443,0,0,0,264,480a8.055,8.055,0,0,0-2.34-5.66A8.331,8.331,0,0,0,260.439,473.35Z"/></g></g></svg>
